# xmcd CD database file
#
# Track frame offsets:
#	150
#	20556
#	39117
#	61820
#	85513
#	107011
#	123885
#	143729
#	161386
#	170263
#	192592
#
# Disc length: 2721 seconds
#
# Revision: 4
# Processed by: cddbd v1.5.2PL0 Copyright (c) Steve Scherf et al.
# Submitted via: CDex 1.51
#
DISCID=7e0a9f0b
DTITLE=Christophe Wallemme - Start '' So Many Ways...''
DYEAR=2008
DGENRE=Jazz
TTITLE0=Quartz
TTITLE1=To bee or not to bee
TTITLE2=Portrait of Cendrine
TTITLE3=Picture in black and white
TTITLE4=Wanted
TTITLE5=Where is my way ¿
TTITLE6=Today perhaps
TTITLE7=Pharaon's dance
TTITLE8=U-Turn
TTITLE9=Certainly tomorrow
TTITLE10=U-Turn  (version 2)
EXTD=YEAR: 2008
EXTT0=
EXTT1=
EXTT2=
EXTT3=
EXTT4=
EXTT5=
EXTT6=
EXTT7=
EXTT8=
EXTT9=
EXTT10=
PLAYORDER=
